<svg width="910" height="363" viewBox="0 0 910 363" fill="none" xmlns="http://www.w3.org/2000/svg">
<g filter="url(#filter0_d_213_665)">
<g clip-path="url(#clip0_213_665)">
<g filter="url(#filter1_b_213_665)">
<rect x="1" y="1" width="907" height="360" fill="white"/>
</g>
<rect x="880.5" y="1.5" width="27" height="359" fill="white" stroke="black"/>
<rect x="1.5" y="333.5" width="906" height="27" fill="white" stroke="black"/>
<rect x="-0.5" y="0.5" width="27" height="27" transform="matrix(-1 0 0 1 880 333)" fill="white" stroke="black"/>
<path d="M865.4 337L875 346.778L865.4 356.556V351.667H859V341.889H865.4V337Z" stroke="black"/>
<rect x="-0.5" y="-0.5" width="27" height="27" transform="matrix(1.19249e-08 -1 -1 -1.19249e-08 907 333)" fill="white" stroke="black"/>
<path d="M904 318.4L894.222 328L884.444 318.4L889.333 318.4L889.333 312L899.111 312L899.111 318.4L904 318.4Z" stroke="black"/>
<rect x="907.5" y="27.5" width="27" height="27" transform="rotate(90 907.5 27.5)" fill="white" stroke="black"/>
<path d="M904 42.6L894.222 33L884.444 42.6L889.333 42.6L889.333 49L899.111 49L899.111 42.6L904 42.6Z" stroke="black"/>
<rect x="1.5" y="333.5" width="27" height="27" fill="white" stroke="black"/>
<path d="M16.6 337L7 346.778L16.6 356.556V351.667H23V341.889H16.6V337Z" stroke="black"/>
<rect x="880.5" y="333.5" width="27" height="27" fill="white" stroke="black"/>
<rect x="889.5" y="342.5" width="12" height="12" fill="white" stroke="black"/>
<rect x="886.5" y="339.5" width="9" height="9" fill="white" stroke="black"/>
</g>
<path d="M1.5 1.5H907.5V360.5H1.5V1.5Z" stroke="black"/>
</g>
<path d="M1.5 1.5H907.5V28.5H1.5V1.5Z" fill="white"/>
<path d="M1.5 1.5H907.5V28.5H1.5V1.5Z" stroke="black"/>
<rect x="5" y="7" width="899" height="1" fill="black"/>
<rect x="5" y="13" width="899" height="1" fill="black"/>
<rect x="5" y="19" width="899" height="1" fill="black"/>
<rect x="5" y="10" width="899" height="1" fill="black"/>
<rect x="5" y="16" width="899" height="1" fill="black"/>
<rect x="5" y="22" width="899" height="1" fill="black"/>
<rect x="15.5" y="7.5" width="15" height="15" fill="white" stroke="black"/>
<rect x="879.5" y="7.5" width="15" height="15" fill="white" stroke="black"/>
<rect x="879.5" y="7.5" width="9" height="9" stroke="black"/>
<rect width="287" height="20" transform="translate(311.5 1)" fill="white"/>
<path d="M321.739 8.2C321.739 7.52 321.646 7.02 321.459 6.7C321.272 6.36667 320.899 6.2 320.339 6.2H319.939V5.8H325.139C326.419 5.8 327.572 6.07333 328.599 6.62C329.626 7.16667 330.139 8.22667 330.139 9.8C330.139 10.84 329.872 11.64 329.339 12.2C328.806 12.76 328.206 13.1333 327.539 13.32C326.886 13.5067 326.286 13.6 325.739 13.6H323.539V19H321.739V8.2ZM325.039 12.9C325.466 12.9 325.919 12.7933 326.399 12.58C326.879 12.3533 327.286 12 327.619 11.52C327.966 11.04 328.139 10.4333 328.139 9.7C328.139 8.96667 327.966 8.36 327.619 7.88C327.286 7.4 326.879 7.05333 326.399 6.84C325.919 6.61333 325.466 6.5 325.039 6.5C324.572 6.5 324.072 6.56667 323.539 6.7V12.7C324.072 12.8333 324.572 12.9 325.039 12.9ZM335.459 19.2C334.553 19.2 333.786 18.9867 333.159 18.56C332.533 18.12 332.059 17.5333 331.739 16.8C331.419 16.0533 331.259 15.22 331.259 14.3C331.259 13.3933 331.419 12.5667 331.739 11.82C332.059 11.0733 332.519 10.4867 333.119 10.06C333.733 9.62 334.446 9.4 335.259 9.4C336.606 9.4 337.606 9.78 338.259 10.54C338.926 11.2867 339.259 12.3733 339.259 13.8L339.219 14.6H333.159C333.159 15.72 333.399 16.6333 333.879 17.34C334.359 18.0467 335.019 18.4 335.859 18.4C336.486 18.4 337.013 18.2667 337.439 18C337.879 17.7333 338.286 17.3333 338.659 16.8L339.059 17.1C338.619 17.8333 338.106 18.3667 337.519 18.7C336.933 19.0333 336.246 19.2 335.459 19.2ZM337.359 13.8C337.359 12.6267 337.186 11.7333 336.839 11.12C336.493 10.5067 335.966 10.2 335.259 10.2C334.859 10.2 334.499 10.36 334.179 10.68C333.859 10.9867 333.606 11.4133 333.419 11.96C333.246 12.5067 333.159 13.12 333.159 13.8H337.359ZM341.645 12C341.645 11.32 341.552 10.82 341.365 10.5C341.178 10.1667 340.805 10 340.245 10H340.045V9.6H341.645C342.152 9.6 342.532 9.67333 342.785 9.82C343.052 9.95333 343.238 10.18 343.345 10.5H343.445C343.685 10.1933 344.005 9.93333 344.405 9.72C344.818 9.50667 345.298 9.4 345.845 9.4C346.378 9.4 346.778 9.5 347.045 9.7C347.272 9.87333 347.505 10.1733 347.745 10.6L346.945 11.2C346.798 11 346.585 10.8533 346.305 10.76C346.025 10.6533 345.705 10.6 345.345 10.6C344.945 10.6 344.578 10.6933 344.245 10.88C343.912 11.0533 343.645 11.2933 343.445 11.6V19H341.645V12ZM352.494 19.2C350.961 19.2 349.927 18.9333 349.394 18.4C349.167 18.1733 349.027 17.92 348.974 17.64C348.921 17.3467 348.894 16.9 348.894 16.3H349.294C349.414 16.9667 349.701 17.4867 350.154 17.86C350.621 18.22 351.267 18.4 352.094 18.4C352.827 18.4 353.374 18.2733 353.734 18.02C354.107 17.7667 354.294 17.4267 354.294 17C354.294 16.6133 354.147 16.28 353.854 16C353.574 15.72 353.121 15.4533 352.494 15.2L351.294 14.7C350.494 14.38 349.894 14.0067 349.494 13.58C349.094 13.1533 348.894 12.6267 348.894 12C348.894 11.1867 349.201 10.5533 349.814 10.1C350.427 9.63333 351.221 9.4 352.194 9.4C353.661 9.4 354.661 9.66667 355.194 10.2C355.421 10.4267 355.561 10.68 355.614 10.96C355.667 11.24 355.694 11.6867 355.694 12.3H355.294C355.187 11.6333 354.907 11.12 354.454 10.76C354.001 10.3867 353.381 10.2 352.594 10.2C351.967 10.2 351.474 10.3333 351.114 10.6C350.767 10.8533 350.594 11.1867 350.594 11.6C350.594 12.2933 351.127 12.86 352.194 13.3L353.394 13.8C354.301 14.1733 354.961 14.5733 355.374 15C355.787 15.4133 355.994 15.9467 355.994 16.6C355.994 17.4133 355.667 18.0533 355.014 18.52C354.361 18.9733 353.521 19.2 352.494 19.2ZM362.06 19.2C361.153 19.2 360.367 18.9867 359.7 18.56C359.033 18.12 358.527 17.5267 358.18 16.78C357.833 16.0333 357.66 15.2067 357.66 14.3C357.66 13.3933 357.833 12.5667 358.18 11.82C358.527 11.0733 359.033 10.4867 359.7 10.06C360.367 9.62 361.153 9.4 362.06 9.4C362.967 9.4 363.753 9.62 364.42 10.06C365.087 10.4867 365.593 11.0733 365.94 11.82C366.287 12.5667 366.46 13.3933 366.46 14.3C366.46 15.2067 366.287 16.0333 365.94 16.78C365.593 17.5267 365.087 18.12 364.42 18.56C363.753 18.9867 362.967 19.2 362.06 19.2ZM362.06 18.4C362.553 18.4 362.987 18.22 363.36 17.86C363.747 17.5 364.04 17.0067 364.24 16.38C364.453 15.7533 364.56 15.06 364.56 14.3C364.56 13.54 364.453 12.8467 364.24 12.22C364.04 11.5933 363.747 11.1 363.36 10.74C362.987 10.38 362.553 10.2 362.06 10.2C361.567 10.2 361.127 10.38 360.74 10.74C360.367 11.1 360.073 11.5933 359.86 12.22C359.66 12.8467 359.56 13.54 359.56 14.3C359.56 15.06 359.66 15.7533 359.86 16.38C360.073 17.0067 360.367 17.5 360.74 17.86C361.127 18.22 361.567 18.4 362.06 18.4ZM369.025 12C369.025 11.32 368.932 10.82 368.745 10.5C368.559 10.1667 368.185 10 367.625 10H367.225V9.6H369.025C369.519 9.6 369.892 9.66667 370.145 9.8C370.412 9.93333 370.605 10.1333 370.725 10.4H370.825C371.105 10.12 371.465 9.88667 371.905 9.7C372.359 9.5 372.865 9.4 373.425 9.4C374.425 9.4 375.239 9.66667 375.865 10.2C376.505 10.7333 376.825 11.6667 376.825 13V19H375.025V13C375.025 12.0667 374.812 11.3867 374.385 10.96C373.972 10.52 373.452 10.3 372.825 10.3C372.119 10.3 371.452 10.6533 370.825 11.36V19H369.025V12ZM381.764 19.2C381.338 19.2 380.904 19.1133 380.464 18.94C380.024 18.7533 379.644 18.4533 379.324 18.04C379.018 17.6267 378.864 17.08 378.864 16.4C378.864 15.3867 379.331 14.6667 380.264 14.24C381.211 13.8133 382.444 13.6 383.964 13.6H384.564C384.564 12.2933 384.384 11.4 384.024 10.92C383.664 10.44 383.144 10.2 382.464 10.2C381.864 10.2 381.384 10.3267 381.024 10.58C380.664 10.8333 380.411 11.2733 380.264 11.9H379.364C379.364 11.4467 379.391 11.0933 379.444 10.84C379.498 10.5733 379.638 10.3267 379.864 10.1C380.104 9.86 380.498 9.68667 381.044 9.58C381.604 9.46 382.211 9.4 382.864 9.4C383.944 9.4 384.798 9.69333 385.424 10.28C386.051 10.8533 386.364 11.96 386.364 13.6V19H385.364L384.664 18.1H384.564C384.324 18.4067 383.971 18.6667 383.504 18.88C383.038 19.0933 382.458 19.2 381.764 19.2ZM382.664 18.3C383.104 18.3 383.471 18.1933 383.764 17.98C384.058 17.7667 384.324 17.4733 384.564 17.1V14.4H383.964C382.978 14.4 382.198 14.5867 381.624 14.96C381.051 15.32 380.764 15.8 380.764 16.4C380.764 17.0133 380.944 17.4867 381.304 17.82C381.678 18.14 382.131 18.3 382.664 18.3ZM389.153 8.2C389.153 7.52 389.06 7.02 388.873 6.7C388.686 6.36667 388.313 6.2 387.753 6.2H387.353V5.8H389.153C389.646 5.8 390.013 5.86667 390.253 6C390.506 6.12 390.686 6.34667 390.793 6.68C390.9 7.01333 390.953 7.52 390.953 8.2V19H389.153V8.2ZM404.397 19.4C403.157 19.4 402.064 19.1 401.117 18.5C400.184 17.9 399.464 17.0867 398.957 16.06C398.45 15.02 398.197 13.8667 398.197 12.6C398.197 11.2933 398.47 10.0867 399.017 8.98C399.577 7.87333 400.33 7 401.277 6.36C402.237 5.72 403.277 5.4 404.397 5.4C405.464 5.4 406.397 5.55333 407.197 5.86C408.01 6.15333 408.61 6.53333 408.997 7C409.224 7.28 409.364 7.65333 409.417 8.12C409.47 8.57333 409.497 9.2 409.497 10H409.097C408.844 8.70667 408.377 7.75333 407.697 7.14C407.017 6.51333 406.117 6.2 404.997 6.2C403.557 6.2 402.397 6.70667 401.517 7.72C400.637 8.73333 400.197 10.36 400.197 12.6C400.197 13.6533 400.364 14.6333 400.697 15.54C401.044 16.4467 401.577 17.1867 402.297 17.76C403.017 18.32 403.917 18.6 404.997 18.6C405.97 18.6 406.817 18.3667 407.537 17.9C408.27 17.4333 408.924 16.7333 409.497 15.8L409.897 16.1C409.284 17.3 408.524 18.1533 407.617 18.66C406.724 19.1533 405.65 19.4 404.397 19.4ZM415.838 19.2C414.931 19.2 414.144 18.9867 413.478 18.56C412.811 18.12 412.304 17.5267 411.958 16.78C411.611 16.0333 411.438 15.2067 411.438 14.3C411.438 13.3933 411.611 12.5667 411.958 11.82C412.304 11.0733 412.811 10.4867 413.478 10.06C414.144 9.62 414.931 9.4 415.838 9.4C416.744 9.4 417.531 9.62 418.198 10.06C418.864 10.4867 419.371 11.0733 419.718 11.82C420.064 12.5667 420.238 13.3933 420.238 14.3C420.238 15.2067 420.064 16.0333 419.718 16.78C419.371 17.5267 418.864 18.12 418.198 18.56C417.531 18.9867 416.744 19.2 415.838 19.2ZM415.838 18.4C416.331 18.4 416.764 18.22 417.138 17.86C417.524 17.5 417.818 17.0067 418.018 16.38C418.231 15.7533 418.338 15.06 418.338 14.3C418.338 13.54 418.231 12.8467 418.018 12.22C417.818 11.5933 417.524 11.1 417.138 10.74C416.764 10.38 416.331 10.2 415.838 10.2C415.344 10.2 414.904 10.38 414.518 10.74C414.144 11.1 413.851 11.5933 413.638 12.22C413.438 12.8467 413.338 13.54 413.338 14.3C413.338 15.06 413.438 15.7533 413.638 16.38C413.851 17.0067 414.144 17.5 414.518 17.86C414.904 18.22 415.344 18.4 415.838 18.4ZM422.583 8.2C422.583 7.52 422.49 7.02 422.303 6.7C422.116 6.36667 421.743 6.2 421.183 6.2H420.783V5.8H422.583C423.076 5.8 423.443 5.86667 423.683 6C423.936 6.12 424.116 6.34667 424.223 6.68C424.33 7.01333 424.383 7.52 424.383 8.2V19H422.583V8.2ZM431.127 19.2C430.22 19.2 429.434 18.9867 428.767 18.56C428.1 18.12 427.594 17.5267 427.247 16.78C426.9 16.0333 426.727 15.2067 426.727 14.3C426.727 13.3933 426.9 12.5667 427.247 11.82C427.594 11.0733 428.1 10.4867 428.767 10.06C429.434 9.62 430.22 9.4 431.127 9.4C432.034 9.4 432.82 9.62 433.487 10.06C434.154 10.4867 434.66 11.0733 435.007 11.82C435.354 12.5667 435.527 13.3933 435.527 14.3C435.527 15.2067 435.354 16.0333 435.007 16.78C434.66 17.5267 434.154 18.12 433.487 18.56C432.82 18.9867 432.034 19.2 431.127 19.2ZM431.127 18.4C431.62 18.4 432.054 18.22 432.427 17.86C432.814 17.5 433.107 17.0067 433.307 16.38C433.52 15.7533 433.627 15.06 433.627 14.3C433.627 13.54 433.52 12.8467 433.307 12.22C433.107 11.5933 432.814 11.1 432.427 10.74C432.054 10.38 431.62 10.2 431.127 10.2C430.634 10.2 430.194 10.38 429.807 10.74C429.434 11.1 429.14 11.5933 428.927 12.22C428.727 12.8467 428.627 13.54 428.627 14.3C428.627 15.06 428.727 15.7533 428.927 16.38C429.14 17.0067 429.434 17.5 429.807 17.86C430.194 18.22 430.634 18.4 431.127 18.4ZM437.952 12C437.952 11.32 437.859 10.82 437.672 10.5C437.486 10.1667 437.112 10 436.552 10H436.352V9.6H437.952C438.459 9.6 438.839 9.67333 439.092 9.82C439.359 9.95333 439.546 10.18 439.652 10.5H439.752C439.992 10.1933 440.312 9.93333 440.712 9.72C441.126 9.50667 441.606 9.4 442.152 9.4C442.686 9.4 443.086 9.5 443.352 9.7C443.579 9.87333 443.812 10.1733 444.052 10.6L443.252 11.2C443.106 11 442.892 10.8533 442.612 10.76C442.332 10.6533 442.012 10.6 441.652 10.6C441.252 10.6 440.886 10.6933 440.552 10.88C440.219 11.0533 439.952 11.2933 439.752 11.6V19H437.952V12ZM452.462 6.6C450.795 6.6 449.962 7.36667 449.962 8.9H449.562V7.4C449.562 6.33333 450.128 5.8 451.262 5.8H460.562V6.6H456.062V19H454.262V6.6H452.462ZM464.103 19.2C463.196 19.2 462.43 18.9867 461.803 18.56C461.176 18.12 460.703 17.5333 460.383 16.8C460.063 16.0533 459.903 15.22 459.903 14.3C459.903 13.3933 460.063 12.5667 460.383 11.82C460.703 11.0733 461.163 10.4867 461.763 10.06C462.376 9.62 463.09 9.4 463.903 9.4C465.25 9.4 466.25 9.78 466.903 10.54C467.57 11.2867 467.903 12.3733 467.903 13.8L467.863 14.6H461.803C461.803 15.72 462.043 16.6333 462.523 17.34C463.003 18.0467 463.663 18.4 464.503 18.4C465.13 18.4 465.656 18.2667 466.083 18C466.523 17.7333 466.93 17.3333 467.303 16.8L467.703 17.1C467.263 17.8333 466.75 18.3667 466.163 18.7C465.576 19.0333 464.89 19.2 464.103 19.2ZM466.003 13.8C466.003 12.6267 465.83 11.7333 465.483 11.12C465.136 10.5067 464.61 10.2 463.903 10.2C463.503 10.2 463.143 10.36 462.823 10.68C462.503 10.9867 462.25 11.4133 462.063 11.96C461.89 12.5067 461.803 13.12 461.803 13.8H466.003ZM473.269 19.2C471.735 19.2 470.702 18.9333 470.169 18.4C469.942 18.1733 469.802 17.92 469.749 17.64C469.695 17.3467 469.669 16.9 469.669 16.3H470.069C470.189 16.9667 470.475 17.4867 470.929 17.86C471.395 18.22 472.042 18.4 472.869 18.4C473.602 18.4 474.149 18.2733 474.509 18.02C474.882 17.7667 475.069 17.4267 475.069 17C475.069 16.6133 474.922 16.28 474.629 16C474.349 15.72 473.895 15.4533 473.269 15.2L472.069 14.7C471.269 14.38 470.669 14.0067 470.269 13.58C469.869 13.1533 469.669 12.6267 469.669 12C469.669 11.1867 469.975 10.5533 470.589 10.1C471.202 9.63333 471.995 9.4 472.969 9.4C474.435 9.4 475.435 9.66667 475.969 10.2C476.195 10.4267 476.335 10.68 476.389 10.96C476.442 11.24 476.469 11.6867 476.469 12.3H476.069C475.962 11.6333 475.682 11.12 475.229 10.76C474.775 10.3867 474.155 10.2 473.369 10.2C472.742 10.2 472.249 10.3333 471.889 10.6C471.542 10.8533 471.369 11.1867 471.369 11.6C471.369 12.2933 471.902 12.86 472.969 13.3L474.169 13.8C475.075 14.1733 475.735 14.5733 476.149 15C476.562 15.4133 476.769 15.9467 476.769 16.6C476.769 17.4133 476.442 18.0533 475.789 18.52C475.135 18.9733 474.295 19.2 473.269 19.2ZM481.754 19.2C481.008 19.2 480.421 18.9867 479.994 18.56C479.568 18.1333 479.354 17.48 479.354 16.6V10.4H477.954V9.6H479.354V7.8L480.354 6.6H481.154V9.6H483.554V10.4H481.154V16.6C481.154 17.8 481.621 18.4 482.554 18.4C482.874 18.4 483.141 18.3667 483.354 18.3C483.581 18.2333 483.814 18.1333 484.054 18L484.254 18.4C483.948 18.6267 483.608 18.82 483.234 18.98C482.861 19.1267 482.368 19.2 481.754 19.2ZM489.892 23.2C488.212 21.9333 486.959 20.5933 486.132 19.18C485.306 17.78 484.892 16.12 484.892 14.2C484.892 12.28 485.306 10.62 486.132 9.22C486.959 7.80667 488.212 6.46667 489.892 5.2L490.092 5.5C487.826 7.48667 486.692 10.3867 486.692 14.2C486.692 18.0133 487.826 20.9133 490.092 22.9L489.892 23.2ZM492.424 8.2C492.424 7.52 492.331 7.02 492.144 6.7C491.957 6.36667 491.584 6.2 491.024 6.2H490.624V5.8H495.824C497.104 5.8 498.257 6.07333 499.284 6.62C500.311 7.16667 500.824 8.22667 500.824 9.8C500.824 10.84 500.557 11.64 500.024 12.2C499.491 12.76 498.891 13.1333 498.224 13.32C497.571 13.5067 496.971 13.6 496.424 13.6H494.224V19H492.424V8.2ZM495.724 12.9C496.151 12.9 496.604 12.7933 497.084 12.58C497.564 12.3533 497.971 12 498.304 11.52C498.651 11.04 498.824 10.4333 498.824 9.7C498.824 8.96667 498.651 8.36 498.304 7.88C497.971 7.4 497.564 7.05333 497.084 6.84C496.604 6.61333 496.151 6.5 495.724 6.5C495.257 6.5 494.757 6.56667 494.224 6.7V12.7C494.757 12.8333 495.257 12.9 495.724 12.9ZM506.144 19.2C505.238 19.2 504.471 18.9867 503.844 18.56C503.218 18.12 502.744 17.5333 502.424 16.8C502.104 16.0533 501.944 15.22 501.944 14.3C501.944 13.3933 502.104 12.5667 502.424 11.82C502.744 11.0733 503.204 10.4867 503.804 10.06C504.418 9.62 505.131 9.4 505.944 9.4C507.291 9.4 508.291 9.78 508.944 10.54C509.611 11.2867 509.944 12.3733 509.944 13.8L509.904 14.6H503.844C503.844 15.72 504.084 16.6333 504.564 17.34C505.044 18.0467 505.704 18.4 506.544 18.4C507.171 18.4 507.698 18.2667 508.124 18C508.564 17.7333 508.971 17.3333 509.344 16.8L509.744 17.1C509.304 17.8333 508.791 18.3667 508.204 18.7C507.618 19.0333 506.931 19.2 506.144 19.2ZM508.044 13.8C508.044 12.6267 507.871 11.7333 507.524 11.12C507.178 10.5067 506.651 10.2 505.944 10.2C505.544 10.2 505.184 10.36 504.864 10.68C504.544 10.9867 504.291 11.4133 504.104 11.96C503.931 12.5067 503.844 13.12 503.844 13.8H508.044ZM512.33 12C512.33 11.32 512.237 10.82 512.05 10.5C511.863 10.1667 511.49 10 510.93 10H510.73V9.6H512.33C512.837 9.6 513.217 9.67333 513.47 9.82C513.737 9.95333 513.923 10.18 514.03 10.5H514.13C514.37 10.1933 514.69 9.93333 515.09 9.72C515.503 9.50667 515.983 9.4 516.53 9.4C517.063 9.4 517.463 9.5 517.73 9.7C517.957 9.87333 518.19 10.1733 518.43 10.6L517.63 11.2C517.483 11 517.27 10.8533 516.99 10.76C516.71 10.6533 516.39 10.6 516.03 10.6C515.63 10.6 515.263 10.6933 514.93 10.88C514.597 11.0533 514.33 11.2933 514.13 11.6V19H512.33V12ZM523.179 19.2C521.646 19.2 520.613 18.9333 520.079 18.4C519.853 18.1733 519.713 17.92 519.659 17.64C519.606 17.3467 519.579 16.9 519.579 16.3H519.979C520.099 16.9667 520.386 17.4867 520.839 17.86C521.306 18.22 521.953 18.4 522.779 18.4C523.513 18.4 524.059 18.2733 524.419 18.02C524.793 17.7667 524.979 17.4267 524.979 17C524.979 16.6133 524.833 16.28 524.539 16C524.259 15.72 523.806 15.4533 523.179 15.2L521.979 14.7C521.179 14.38 520.579 14.0067 520.179 13.58C519.779 13.1533 519.579 12.6267 519.579 12C519.579 11.1867 519.886 10.5533 520.499 10.1C521.113 9.63333 521.906 9.4 522.879 9.4C524.346 9.4 525.346 9.66667 525.879 10.2C526.106 10.4267 526.246 10.68 526.299 10.96C526.353 11.24 526.379 11.6867 526.379 12.3H525.979C525.873 11.6333 525.593 11.12 525.139 10.76C524.686 10.3867 524.066 10.2 523.279 10.2C522.653 10.2 522.159 10.3333 521.799 10.6C521.453 10.8533 521.279 11.1867 521.279 11.6C521.279 12.2933 521.813 12.86 522.879 13.3L524.079 13.8C524.986 14.1733 525.646 14.5733 526.059 15C526.473 15.4133 526.679 15.9467 526.679 16.6C526.679 17.4133 526.353 18.0533 525.699 18.52C525.046 18.9733 524.206 19.2 523.179 19.2ZM532.745 19.2C531.838 19.2 531.052 18.9867 530.385 18.56C529.718 18.12 529.212 17.5267 528.865 16.78C528.518 16.0333 528.345 15.2067 528.345 14.3C528.345 13.3933 528.518 12.5667 528.865 11.82C529.212 11.0733 529.718 10.4867 530.385 10.06C531.052 9.62 531.838 9.4 532.745 9.4C533.652 9.4 534.438 9.62 535.105 10.06C535.772 10.4867 536.278 11.0733 536.625 11.82C536.972 12.5667 537.145 13.3933 537.145 14.3C537.145 15.2067 536.972 16.0333 536.625 16.78C536.278 17.5267 535.772 18.12 535.105 18.56C534.438 18.9867 533.652 19.2 532.745 19.2ZM532.745 18.4C533.238 18.4 533.672 18.22 534.045 17.86C534.432 17.5 534.725 17.0067 534.925 16.38C535.138 15.7533 535.245 15.06 535.245 14.3C535.245 13.54 535.138 12.8467 534.925 12.22C534.725 11.5933 534.432 11.1 534.045 10.74C533.672 10.38 533.238 10.2 532.745 10.2C532.252 10.2 531.812 10.38 531.425 10.74C531.052 11.1 530.758 11.5933 530.545 12.22C530.345 12.8467 530.245 13.54 530.245 14.3C530.245 15.06 530.345 15.7533 530.545 16.38C530.758 17.0067 531.052 17.5 531.425 17.86C531.812 18.22 532.252 18.4 532.745 18.4ZM539.71 12C539.71 11.32 539.617 10.82 539.43 10.5C539.244 10.1667 538.87 10 538.31 10H537.91V9.6H539.71C540.204 9.6 540.577 9.66667 540.83 9.8C541.097 9.93333 541.29 10.1333 541.41 10.4H541.51C541.79 10.12 542.15 9.88667 542.59 9.7C543.044 9.5 543.55 9.4 544.11 9.4C545.11 9.4 545.924 9.66667 546.55 10.2C547.19 10.7333 547.51 11.6667 547.51 13V19H545.71V13C545.71 12.0667 545.497 11.3867 545.07 10.96C544.657 10.52 544.137 10.3 543.51 10.3C542.804 10.3 542.137 10.6533 541.51 11.36V19H539.71V12ZM552.449 19.2C552.023 19.2 551.589 19.1133 551.149 18.94C550.709 18.7533 550.329 18.4533 550.009 18.04C549.703 17.6267 549.549 17.08 549.549 16.4C549.549 15.3867 550.016 14.6667 550.949 14.24C551.896 13.8133 553.129 13.6 554.649 13.6H555.249C555.249 12.2933 555.069 11.4 554.709 10.92C554.349 10.44 553.829 10.2 553.149 10.2C552.549 10.2 552.069 10.3267 551.709 10.58C551.349 10.8333 551.096 11.2733 550.949 11.9H550.049C550.049 11.4467 550.076 11.0933 550.129 10.84C550.183 10.5733 550.323 10.3267 550.549 10.1C550.789 9.86 551.183 9.68667 551.729 9.58C552.289 9.46 552.896 9.4 553.549 9.4C554.629 9.4 555.483 9.69333 556.109 10.28C556.736 10.8533 557.049 11.96 557.049 13.6V19H556.049L555.349 18.1H555.249C555.009 18.4067 554.656 18.6667 554.189 18.88C553.723 19.0933 553.143 19.2 552.449 19.2ZM553.349 18.3C553.789 18.3 554.156 18.1933 554.449 17.98C554.743 17.7667 555.009 17.4733 555.249 17.1V14.4H554.649C553.663 14.4 552.883 14.5867 552.309 14.96C551.736 15.32 551.449 15.8 551.449 16.4C551.449 17.0133 551.629 17.4867 551.989 17.82C552.363 18.14 552.816 18.3 553.349 18.3ZM559.838 8.2C559.838 7.52 559.745 7.02 559.558 6.7C559.372 6.36667 558.998 6.2 558.438 6.2H558.038V5.8H559.838C560.332 5.8 560.698 5.86667 560.938 6C561.192 6.12 561.372 6.34667 561.478 6.68C561.585 7.01333 561.638 7.52 561.638 8.2V19H559.838V8.2ZM565.582 8.4C565.275 8.4 565.009 8.27333 564.782 8.02C564.569 7.76667 564.462 7.46667 564.462 7.12C564.462 6.84 564.542 6.62 564.702 6.46C564.875 6.3 565.102 6.22 565.382 6.22C565.689 6.22 565.949 6.34667 566.162 6.6C566.389 6.85333 566.502 7.15333 566.502 7.5C566.502 7.78 566.415 8 566.242 8.16C566.082 8.32 565.862 8.4 565.582 8.4ZM564.822 12C564.822 11.32 564.729 10.82 564.542 10.5C564.355 10.1667 563.982 10 563.422 10H563.022V9.6H564.822C565.315 9.6 565.682 9.66667 565.922 9.8C566.175 9.92 566.355 10.1467 566.462 10.48C566.569 10.8133 566.622 11.32 566.622 12V19H564.822V12ZM572.144 19.2C571.397 19.2 570.811 18.9867 570.384 18.56C569.957 18.1333 569.744 17.48 569.744 16.6V10.4H568.344V9.6H569.744V7.8L570.744 6.6H571.544V9.6H573.944V10.4H571.544V16.6C571.544 17.8 572.011 18.4 572.944 18.4C573.264 18.4 573.531 18.3667 573.744 18.3C573.971 18.2333 574.204 18.1333 574.444 18L574.644 18.4C574.337 18.6267 573.997 18.82 573.624 18.98C573.251 19.1267 572.757 19.2 572.144 19.2ZM576.702 22.4C577.355 22.4 577.888 22.2467 578.302 21.94C578.728 21.6467 579.095 21.1 579.402 20.3L579.802 19.2L576.602 11.4C576.228 10.44 575.495 9.90667 574.402 9.8V9.4H576.102C577.262 9.4 578.062 9.93333 578.502 11L580.782 16.54L583.302 9.6H584.302L580.402 20.3C580.015 21.3533 579.588 22.0667 579.122 22.44C578.655 22.8133 578.048 23 577.302 23H576.702V22.4ZM584.509 22.9C586.776 20.9133 587.909 18.0133 587.909 14.2C587.909 10.3867 586.776 7.48667 584.509 5.5L584.709 5.2C586.389 6.46667 587.643 7.80667 588.469 9.22C589.296 10.62 589.709 12.28 589.709 14.2C589.709 16.12 589.296 17.78 588.469 19.18C587.643 20.5933 586.389 21.9333 584.709 23.2L584.509 22.9Z" fill="black"/>
<path d="M282.857 152V136.4H287.057C289.297 136.4 291.009 137.072 292.193 138.416C293.393 139.744 293.993 141.672 293.993 144.2C293.993 146.728 293.401 148.664 292.217 150.008C291.049 151.336 289.353 152 287.129 152H282.857ZM285.737 149.36H286.913C288.337 149.36 289.385 148.944 290.057 148.112C290.729 147.264 291.065 145.96 291.065 144.2C291.065 142.44 290.729 141.144 290.057 140.312C289.385 139.464 288.337 139.04 286.913 139.04H285.737V149.36ZM300.498 152V143.12H296.082V140.576H303.33V149.456H307.746V152H300.498ZM301.674 138.512C301.13 138.512 300.674 138.328 300.306 137.96C299.938 137.592 299.754 137.136 299.754 136.592C299.754 136.048 299.938 135.592 300.306 135.224C300.674 134.856 301.13 134.672 301.674 134.672C302.218 134.672 302.674 134.856 303.042 135.224C303.41 135.592 303.594 136.048 303.594 136.592C303.594 137.136 303.41 137.592 303.042 137.96C302.674 138.328 302.218 138.512 301.674 138.512ZM315.644 152.288C313.5 152.288 311.668 151.816 310.148 150.872L311.18 148.664C311.804 149.064 312.5 149.368 313.268 149.576C314.052 149.784 314.868 149.888 315.716 149.888C317.364 149.888 318.188 149.496 318.188 148.712C318.188 148.392 318.1 148.16 317.924 148.016C317.748 147.872 317.428 147.776 316.964 147.728L314.324 147.416C313.108 147.272 312.204 146.936 311.612 146.408C311.036 145.864 310.748 145.088 310.748 144.08C310.748 142.864 311.18 141.928 312.044 141.272C312.908 140.616 314.164 140.288 315.812 140.288C317.604 140.288 319.244 140.672 320.732 141.44L319.82 143.696C318.652 143.024 317.3 142.688 315.764 142.688C314.308 142.688 313.58 143.072 313.58 143.84C313.58 144.144 313.668 144.368 313.844 144.512C314.036 144.656 314.356 144.752 314.804 144.8L317.444 145.112C318.66 145.256 319.556 145.6 320.132 146.144C320.724 146.672 321.02 147.448 321.02 148.472C321.02 149.688 320.556 150.632 319.628 151.304C318.716 151.96 317.388 152.288 315.644 152.288ZM330.526 152.288C329.278 152.288 328.19 152.048 327.262 151.568C326.35 151.072 325.638 150.376 325.126 149.48C324.63 148.584 324.382 147.52 324.382 146.288C324.382 145.056 324.63 143.992 325.126 143.096C325.638 142.2 326.35 141.512 327.262 141.032C328.19 140.536 329.278 140.288 330.526 140.288C332.014 140.288 333.374 140.68 334.606 141.464L333.622 143.792C333.03 143.456 332.502 143.224 332.038 143.096C331.59 142.952 331.11 142.88 330.598 142.88C329.51 142.88 328.678 143.168 328.102 143.744C327.542 144.32 327.262 145.168 327.262 146.288C327.262 147.408 327.542 148.256 328.102 148.832C328.678 149.408 329.51 149.696 330.598 149.696C331.158 149.696 331.686 149.616 332.182 149.456C332.678 149.296 333.254 149.016 333.91 148.616L334.966 150.872C333.638 151.816 332.158 152.288 330.526 152.288ZM343.392 152.288C342.24 152.288 341.224 152.04 340.344 151.544C339.464 151.032 338.776 150.328 338.28 149.432C337.784 148.52 337.536 147.472 337.536 146.288C337.536 145.088 337.784 144.04 338.28 143.144C338.776 142.248 339.464 141.552 340.344 141.056C341.224 140.544 342.24 140.288 343.392 140.288C344.544 140.288 345.56 140.544 346.44 141.056C347.32 141.552 348.008 142.248 348.504 143.144C349 144.04 349.248 145.088 349.248 146.288C349.248 147.472 349 148.52 348.504 149.432C348.008 150.328 347.32 151.032 346.44 151.544C345.56 152.04 344.544 152.288 343.392 152.288ZM343.392 149.696C344.32 149.696 345.048 149.4 345.576 148.808C346.104 148.2 346.368 147.36 346.368 146.288C346.368 145.216 346.104 144.384 345.576 143.792C345.048 143.184 344.32 142.88 343.392 142.88C342.464 142.88 341.736 143.184 341.208 143.792C340.68 144.384 340.416 145.216 340.416 146.288C340.416 147.36 340.68 148.2 341.208 148.808C341.736 149.4 342.464 149.696 343.392 149.696ZM355.778 152L351.29 140.576H354.314L357.314 148.472L360.314 140.576H363.146L358.658 152H355.778ZM371.692 152.288C369.708 152.288 368.148 151.752 367.012 150.68C365.876 149.608 365.308 148.144 365.308 146.288C365.308 145.088 365.556 144.04 366.052 143.144C366.548 142.248 367.236 141.552 368.116 141.056C368.996 140.544 370.02 140.288 371.188 140.288C372.324 140.288 373.308 140.528 374.14 141.008C374.988 141.472 375.644 142.128 376.108 142.976C376.572 143.824 376.804 144.816 376.804 145.952C376.804 146.16 376.796 146.376 376.78 146.6C376.764 146.808 376.732 147.032 376.684 147.272H368.188C368.348 148.152 368.724 148.808 369.316 149.24C369.908 149.672 370.708 149.888 371.716 149.888C372.916 149.888 374.092 149.52 375.244 148.784L376.3 150.872C375.564 151.368 374.828 151.728 374.092 151.952C373.356 152.176 372.556 152.288 371.692 152.288ZM368.212 145.136H374.02C373.892 144.336 373.58 143.728 373.084 143.312C372.604 142.896 371.964 142.688 371.164 142.688C370.38 142.688 369.732 142.896 369.22 143.312C368.724 143.728 368.388 144.336 368.212 145.136ZM380.526 152V140.576H382.734L383.022 142.16C383.614 141.504 384.254 141.032 384.942 140.744C385.63 140.44 386.406 140.288 387.27 140.288C388.438 140.288 389.446 140.592 390.294 141.2L389.238 143.648C388.886 143.392 388.526 143.208 388.158 143.096C387.806 142.968 387.422 142.904 387.006 142.904C385.646 142.904 384.43 143.56 383.358 144.872V152H380.526ZM411.081 152V145.304L405.801 136.4H409.233L412.641 142.472L416.073 136.4H419.241L413.961 145.304V152H411.081ZM426.347 152.288C425.195 152.288 424.179 152.04 423.299 151.544C422.419 151.032 421.731 150.328 421.235 149.432C420.739 148.52 420.491 147.472 420.491 146.288C420.491 145.088 420.739 144.04 421.235 143.144C421.731 142.248 422.419 141.552 423.299 141.056C424.179 140.544 425.195 140.288 426.347 140.288C427.499 140.288 428.515 140.544 429.395 141.056C430.275 141.552 430.963 142.248 431.459 143.144C431.955 144.04 432.203 145.088 432.203 146.288C432.203 147.472 431.955 148.52 431.459 149.432C430.963 150.328 430.275 151.032 429.395 151.544C428.515 152.04 427.499 152.288 426.347 152.288ZM426.347 149.696C427.275 149.696 428.003 149.4 428.531 148.808C429.059 148.2 429.323 147.36 429.323 146.288C429.323 145.216 429.059 144.384 428.531 143.792C428.003 143.184 427.275 142.88 426.347 142.88C425.419 142.88 424.691 143.184 424.163 143.792C423.635 144.384 423.371 145.216 423.371 146.288C423.371 147.36 423.635 148.2 424.163 148.808C424.691 149.4 425.419 149.696 426.347 149.696ZM439.141 152.288C437.797 152.288 436.765 151.912 436.045 151.16C435.325 150.392 434.965 149.304 434.965 147.896V140.576H437.797V147.464C437.797 148.28 437.949 148.856 438.253 149.192C438.573 149.528 439.117 149.696 439.885 149.696C440.333 149.696 440.757 149.64 441.157 149.528C441.557 149.416 441.957 149.256 442.357 149.048V140.576H445.189V152H443.101L442.861 151.016C442.269 151.464 441.669 151.792 441.061 152C440.453 152.192 439.813 152.288 439.141 152.288ZM449.655 152V140.576H451.863L452.151 142.16C452.743 141.504 453.383 141.032 454.071 140.744C454.759 140.44 455.535 140.288 456.399 140.288C457.567 140.288 458.575 140.592 459.423 141.2L458.367 143.648C458.015 143.392 457.655 143.208 457.287 143.096C456.935 142.968 456.551 142.904 456.135 142.904C454.775 142.904 453.559 143.56 452.487 144.872V152H449.655ZM480.211 152V139.064H475.411V136.4H487.891V139.064H483.091V152H480.211ZM491.133 152V140.576H493.341L493.629 142.16C494.221 141.504 494.861 141.032 495.549 140.744C496.237 140.44 497.013 140.288 497.877 140.288C499.045 140.288 500.053 140.592 500.901 141.2L499.845 143.648C499.493 143.392 499.133 143.208 498.765 143.096C498.413 142.968 498.029 142.904 497.613 142.904C496.253 142.904 495.037 143.56 493.965 144.872V152H491.133ZM508.271 152.288C506.927 152.288 505.895 151.912 505.175 151.16C504.455 150.392 504.095 149.304 504.095 147.896V140.576H506.927V147.464C506.927 148.28 507.079 148.856 507.383 149.192C507.703 149.528 508.247 149.696 509.015 149.696C509.463 149.696 509.887 149.64 510.287 149.528C510.687 149.416 511.087 149.256 511.487 149.048V140.576H514.319V152H512.231L511.991 151.016C511.399 151.464 510.799 151.792 510.191 152C509.583 152.192 508.943 152.288 508.271 152.288ZM523.776 152.288C521.792 152.288 520.232 151.752 519.096 150.68C517.96 149.608 517.392 148.144 517.392 146.288C517.392 145.088 517.64 144.04 518.136 143.144C518.632 142.248 519.32 141.552 520.2 141.056C521.08 140.544 522.104 140.288 523.272 140.288C524.408 140.288 525.392 140.528 526.224 141.008C527.072 141.472 527.728 142.128 528.192 142.976C528.656 143.824 528.888 144.816 528.888 145.952C528.888 146.16 528.88 146.376 528.864 146.6C528.848 146.808 528.816 147.032 528.768 147.272H520.272C520.432 148.152 520.808 148.808 521.4 149.24C521.992 149.672 522.792 149.888 523.8 149.888C525 149.888 526.176 149.52 527.328 148.784L528.384 150.872C527.648 151.368 526.912 151.728 526.176 151.952C525.44 152.176 524.64 152.288 523.776 152.288ZM520.296 145.136H526.104C525.976 144.336 525.664 143.728 525.168 143.312C524.688 142.896 524.048 142.688 523.248 142.688C522.464 142.688 521.816 142.896 521.304 143.312C520.808 143.728 520.472 144.336 520.296 145.136ZM551.692 152.288C549.58 152.288 547.964 151.6 546.844 150.224C545.74 148.832 545.188 146.824 545.188 144.2C545.188 141.576 545.74 139.576 546.844 138.2C547.964 136.808 549.58 136.112 551.692 136.112C552.604 136.112 553.428 136.248 554.164 136.52C554.9 136.792 555.596 137.224 556.252 137.816L554.788 140.048C554.308 139.616 553.812 139.304 553.3 139.112C552.804 138.904 552.276 138.8 551.716 138.8C549.316 138.8 548.116 140.6 548.116 144.2C548.116 147.8 549.316 149.6 551.716 149.6C552.356 149.6 552.948 149.472 553.492 149.216C554.036 148.96 554.58 148.56 555.124 148.016L556.756 150.104C556.02 150.856 555.252 151.408 554.452 151.76C553.652 152.112 552.732 152.288 551.692 152.288ZM564.606 152.288C563.454 152.288 562.438 152.04 561.558 151.544C560.678 151.032 559.99 150.328 559.494 149.432C558.998 148.52 558.75 147.472 558.75 146.288C558.75 145.088 558.998 144.04 559.494 143.144C559.99 142.248 560.678 141.552 561.558 141.056C562.438 140.544 563.454 140.288 564.606 140.288C565.758 140.288 566.774 140.544 567.654 141.056C568.534 141.552 569.222 142.248 569.718 143.144C570.214 144.04 570.462 145.088 570.462 146.288C570.462 147.472 570.214 148.52 569.718 149.432C569.222 150.328 568.534 151.032 567.654 151.544C566.774 152.04 565.758 152.288 564.606 152.288ZM564.606 149.696C565.534 149.696 566.262 149.4 566.79 148.808C567.318 148.2 567.582 147.36 567.582 146.288C567.582 145.216 567.318 144.384 566.79 143.792C566.262 143.184 565.534 142.88 564.606 142.88C563.678 142.88 562.95 143.184 562.422 143.792C561.894 144.384 561.63 145.216 561.63 146.288C561.63 147.36 561.894 148.2 562.422 148.808C562.95 149.4 563.678 149.696 564.606 149.696ZM580.856 152.288C577.912 152.288 576.44 150.824 576.44 147.896V137.528H572.024V134.96H579.272V147.464C579.272 148.28 579.424 148.856 579.728 149.192C580.048 149.528 580.592 149.696 581.36 149.696C582.304 149.696 583.216 149.424 584.096 148.88L584.816 151.28C583.664 151.952 582.344 152.288 580.856 152.288ZM592.258 152.288C591.106 152.288 590.09 152.04 589.21 151.544C588.33 151.032 587.642 150.328 587.146 149.432C586.65 148.52 586.402 147.472 586.402 146.288C586.402 145.088 586.65 144.04 587.146 143.144C587.642 142.248 588.33 141.552 589.21 141.056C590.09 140.544 591.106 140.288 592.258 140.288C593.41 140.288 594.426 140.544 595.306 141.056C596.186 141.552 596.874 142.248 597.37 143.144C597.866 144.04 598.114 145.088 598.114 146.288C598.114 147.472 597.866 148.52 597.37 149.432C596.874 150.328 596.186 151.032 595.306 151.544C594.426 152.04 593.41 152.288 592.258 152.288ZM592.258 149.696C593.186 149.696 593.914 149.4 594.442 148.808C594.97 148.2 595.234 147.36 595.234 146.288C595.234 145.216 594.97 144.384 594.442 143.792C593.914 143.184 593.186 142.88 592.258 142.88C591.33 142.88 590.602 143.184 590.074 143.792C589.546 144.384 589.282 145.216 589.282 146.288C589.282 147.36 589.546 148.2 590.074 148.808C590.602 149.4 591.33 149.696 592.258 149.696ZM601.74 152V140.576H603.948L604.236 142.16C604.828 141.504 605.468 141.032 606.156 140.744C606.844 140.44 607.62 140.288 608.484 140.288C609.652 140.288 610.66 140.592 611.508 141.2L610.452 143.648C610.1 143.392 609.74 143.208 609.372 143.096C609.02 142.968 608.636 142.904 608.22 142.904C606.86 142.904 605.644 143.56 604.572 144.872V152H601.74ZM619.814 152.288C617.67 152.288 615.838 151.816 614.318 150.872L615.35 148.664C615.974 149.064 616.67 149.368 617.438 149.576C618.222 149.784 619.038 149.888 619.886 149.888C621.534 149.888 622.358 149.496 622.358 148.712C622.358 148.392 622.27 148.16 622.094 148.016C621.918 147.872 621.598 147.776 621.134 147.728L618.494 147.416C617.278 147.272 616.374 146.936 615.782 146.408C615.206 145.864 614.918 145.088 614.918 144.08C614.918 142.864 615.35 141.928 616.214 141.272C617.078 140.616 618.334 140.288 619.982 140.288C621.774 140.288 623.414 140.672 624.902 141.44L623.99 143.696C622.822 143.024 621.47 142.688 619.934 142.688C618.478 142.688 617.75 143.072 617.75 143.84C617.75 144.144 617.838 144.368 618.014 144.512C618.206 144.656 618.526 144.752 618.974 144.8L621.614 145.112C622.83 145.256 623.726 145.6 624.302 146.144C624.894 146.672 625.19 147.448 625.19 148.472C625.19 149.688 624.726 150.632 623.798 151.304C622.886 151.96 621.558 152.288 619.814 152.288ZM121.338 181V167.08H116.154V165.4H128.298V167.08H123.114V181H121.338ZM134.996 181.288C133.62 181.288 132.556 180.976 131.804 180.352C131.052 179.712 130.676 178.832 130.676 177.712C130.676 176.64 131.028 175.824 131.732 175.264C132.436 174.704 133.492 174.424 134.9 174.424H139.22V173.944C139.22 172.904 138.972 172.168 138.476 171.736C137.996 171.288 137.172 171.064 136.004 171.064C134.5 171.064 133.14 171.392 131.924 172.048L131.372 170.536C132.748 169.8 134.316 169.432 136.076 169.432C137.772 169.432 139.004 169.776 139.772 170.464C140.556 171.136 140.948 172.208 140.948 173.68V181H139.652L139.436 179.8C138.78 180.296 138.084 180.672 137.348 180.928C136.612 181.168 135.828 181.288 134.996 181.288ZM135.236 179.656C136.74 179.656 138.068 179.224 139.22 178.36V175.96H134.852C134.036 175.96 133.428 176.112 133.028 176.416C132.644 176.704 132.452 177.136 132.452 177.712C132.452 178.352 132.684 178.84 133.148 179.176C133.612 179.496 134.308 179.656 135.236 179.656ZM145.246 181V163.96H146.974V175.48L153.406 169.72H155.758L150.814 174.112L155.878 181H153.718L149.494 175.264L146.974 177.52V181H145.246ZM164.352 181.288C162.416 181.288 160.888 180.76 159.768 179.704C158.664 178.648 158.112 177.2 158.112 175.36C158.112 174.144 158.352 173.096 158.832 172.216C159.312 171.336 159.984 170.656 160.848 170.176C161.712 169.68 162.72 169.432 163.872 169.432C164.992 169.432 165.96 169.664 166.776 170.128C167.592 170.576 168.216 171.216 168.648 172.048C169.096 172.864 169.32 173.84 169.32 174.976C169.32 175.136 169.32 175.296 169.32 175.456C169.32 175.616 169.304 175.784 169.272 175.96H159.912C160.024 177.144 160.464 178.056 161.232 178.696C162 179.336 163.056 179.656 164.4 179.656C165.744 179.656 167.016 179.264 168.216 178.48L168.96 179.896C168.24 180.376 167.504 180.728 166.752 180.952C166 181.176 165.2 181.288 164.352 181.288ZM159.96 174.424H167.568C167.456 173.368 167.08 172.544 166.44 171.952C165.8 171.36 164.936 171.064 163.848 171.064C162.776 171.064 161.896 171.36 161.208 171.952C160.536 172.544 160.12 173.368 159.96 174.424ZM191.355 181.288C190.219 181.288 189.219 181.04 188.355 180.544C187.491 180.048 186.819 179.36 186.339 178.48C185.875 177.584 185.643 176.544 185.643 175.36C185.643 174.176 185.875 173.144 186.339 172.264C186.819 171.368 187.491 170.672 188.355 170.176C189.219 169.68 190.219 169.432 191.355 169.432C192.507 169.432 193.507 169.68 194.355 170.176C195.219 170.672 195.883 171.368 196.347 172.264C196.827 173.144 197.067 174.176 197.067 175.36C197.067 176.544 196.827 177.584 196.347 178.48C195.883 179.36 195.219 180.048 194.355 180.544C193.507 181.04 192.507 181.288 191.355 181.288ZM191.355 179.656C192.587 179.656 193.547 179.272 194.235 178.504C194.939 177.736 195.291 176.688 195.291 175.36C195.291 174.032 194.939 172.984 194.235 172.216C193.547 171.448 192.587 171.064 191.355 171.064C190.139 171.064 189.179 171.448 188.475 172.216C187.771 172.984 187.419 174.032 187.419 175.36C187.419 176.688 187.771 177.736 188.475 178.504C189.179 179.272 190.139 179.656 191.355 179.656ZM204.245 181.288C202.933 181.288 201.933 180.936 201.245 180.232C200.557 179.512 200.213 178.448 200.213 177.04V169.72H201.941V176.776C201.941 177.784 202.149 178.52 202.565 178.984C202.981 179.432 203.637 179.656 204.533 179.656C205.189 179.656 205.837 179.544 206.477 179.32C207.133 179.096 207.733 178.784 208.277 178.384V169.72H210.005V181H208.709L208.517 179.8C207.877 180.296 207.197 180.672 206.477 180.928C205.773 181.168 205.029 181.288 204.245 181.288ZM215.023 181V169.72H216.415L216.655 171.688C217.311 170.936 218.039 170.376 218.839 170.008C219.655 169.624 220.535 169.432 221.479 169.432C222.535 169.432 223.383 169.656 224.023 170.104L223.375 171.664C223.071 171.456 222.751 171.312 222.415 171.232C222.095 171.136 221.735 171.088 221.335 171.088C219.527 171.088 217.999 171.944 216.751 173.656V181H215.023ZM241.643 186.04V169.72H242.939L243.131 170.92C244.443 169.928 245.827 169.432 247.283 169.432C248.803 169.432 250.003 169.968 250.883 171.04C251.779 172.112 252.227 173.552 252.227 175.36C252.227 177.168 251.779 178.608 250.883 179.68C250.003 180.752 248.803 181.288 247.283 181.288C246.611 181.288 245.939 181.176 245.267 180.952C244.611 180.728 243.979 180.4 243.371 179.968V186.04H241.643ZM246.995 179.656C248.083 179.656 248.931 179.272 249.539 178.504C250.147 177.736 250.451 176.688 250.451 175.36C250.451 174.032 250.147 172.984 249.539 172.216C248.931 171.448 248.083 171.064 246.995 171.064C246.403 171.064 245.779 171.176 245.123 171.4C244.483 171.624 243.899 171.936 243.371 172.336V178.384C243.899 178.784 244.483 179.096 245.123 179.32C245.779 179.544 246.403 179.656 246.995 179.656ZM261.133 181.288C259.197 181.288 257.669 180.76 256.549 179.704C255.445 178.648 254.893 177.2 254.893 175.36C254.893 174.144 255.133 173.096 255.613 172.216C256.093 171.336 256.765 170.656 257.629 170.176C258.493 169.68 259.501 169.432 260.653 169.432C261.773 169.432 262.741 169.664 263.557 170.128C264.373 170.576 264.997 171.216 265.429 172.048C265.877 172.864 266.101 173.84 266.101 174.976C266.101 175.136 266.101 175.296 266.101 175.456C266.101 175.616 266.085 175.784 266.053 175.96H256.693C256.805 177.144 257.245 178.056 258.013 178.696C258.781 179.336 259.837 179.656 261.181 179.656C262.525 179.656 263.797 179.264 264.997 178.48L265.741 179.896C265.021 180.376 264.285 180.728 263.533 180.952C262.781 181.176 261.981 181.288 261.133 181.288ZM256.741 174.424H264.349C264.237 173.368 263.861 172.544 263.221 171.952C262.581 171.36 261.717 171.064 260.629 171.064C259.557 171.064 258.677 171.36 257.989 171.952C257.317 172.544 256.901 173.368 256.741 174.424ZM270.327 181V169.72H271.719L271.959 171.688C272.615 170.936 273.343 170.376 274.143 170.008C274.959 169.624 275.839 169.432 276.783 169.432C277.839 169.432 278.687 169.656 279.327 170.104L278.679 171.664C278.375 171.456 278.055 171.312 277.719 171.232C277.399 171.136 277.039 171.088 276.639 171.088C274.831 171.088 273.303 171.944 272.055 173.656V181H270.327ZM288.113 181.288C286.145 181.288 284.385 180.824 282.833 179.896L283.529 178.432C284.217 178.832 284.953 179.136 285.737 179.344C286.521 179.552 287.337 179.656 288.185 179.656C290.345 179.656 291.425 179.032 291.425 177.784C291.425 177.32 291.281 176.984 290.993 176.776C290.705 176.552 290.201 176.392 289.481 176.296L286.745 175.912C285.577 175.736 284.721 175.424 284.177 174.976C283.649 174.512 283.385 173.832 283.385 172.936C283.385 171.816 283.793 170.952 284.609 170.344C285.441 169.736 286.601 169.432 288.089 169.432C289.769 169.432 291.353 169.816 292.841 170.584L292.217 172.072C290.953 171.4 289.561 171.064 288.041 171.064C286.105 171.064 285.137 171.648 285.137 172.816C285.137 173.264 285.281 173.592 285.569 173.8C285.857 174.008 286.361 174.16 287.081 174.256L289.817 174.64C291.001 174.8 291.857 175.112 292.385 175.576C292.913 176.04 293.177 176.736 293.177 177.664C293.177 178.832 292.737 179.728 291.857 180.352C290.993 180.976 289.745 181.288 288.113 181.288ZM301.962 181.288C300.826 181.288 299.826 181.04 298.962 180.544C298.098 180.048 297.426 179.36 296.946 178.48C296.482 177.584 296.25 176.544 296.25 175.36C296.25 174.176 296.482 173.144 296.946 172.264C297.426 171.368 298.098 170.672 298.962 170.176C299.826 169.68 300.826 169.432 301.962 169.432C303.114 169.432 304.114 169.68 304.962 170.176C305.826 170.672 306.49 171.368 306.954 172.264C307.434 173.144 307.674 174.176 307.674 175.36C307.674 176.544 307.434 177.584 306.954 178.48C306.49 179.36 305.826 180.048 304.962 180.544C304.114 181.04 303.114 181.288 301.962 181.288ZM301.962 179.656C303.194 179.656 304.154 179.272 304.842 178.504C305.546 177.736 305.898 176.688 305.898 175.36C305.898 174.032 305.546 172.984 304.842 172.216C304.154 171.448 303.194 171.064 301.962 171.064C300.746 171.064 299.786 171.448 299.082 172.216C298.378 172.984 298.026 174.032 298.026 175.36C298.026 176.688 298.378 177.736 299.082 178.504C299.786 179.272 300.746 179.656 301.962 179.656ZM310.964 181V169.72H312.26L312.452 170.92C313.108 170.424 313.788 170.056 314.492 169.816C315.196 169.56 315.94 169.432 316.724 169.432C318.052 169.432 319.052 169.784 319.724 170.488C320.412 171.192 320.756 172.256 320.756 173.68V181H319.028V173.944C319.028 172.936 318.82 172.208 318.404 171.76C317.988 171.296 317.332 171.064 316.436 171.064C315.796 171.064 315.148 171.176 314.492 171.4C313.852 171.608 313.252 171.92 312.692 172.336V181H310.964ZM328.558 181.288C327.182 181.288 326.118 180.976 325.366 180.352C324.614 179.712 324.238 178.832 324.238 177.712C324.238 176.64 324.59 175.824 325.294 175.264C325.998 174.704 327.054 174.424 328.462 174.424H332.782V173.944C332.782 172.904 332.534 172.168 332.038 171.736C331.558 171.288 330.734 171.064 329.566 171.064C328.062 171.064 326.702 171.392 325.486 172.048L324.934 170.536C326.31 169.8 327.878 169.432 329.638 169.432C331.334 169.432 332.566 169.776 333.334 170.464C334.118 171.136 334.51 172.208 334.51 173.68V181H333.214L332.998 179.8C332.342 180.296 331.646 180.672 330.91 180.928C330.174 181.168 329.39 181.288 328.558 181.288ZM328.798 179.656C330.302 179.656 331.63 179.224 332.782 178.36V175.96H328.414C327.598 175.96 326.99 176.112 326.59 176.416C326.206 176.704 326.014 177.136 326.014 177.712C326.014 178.352 326.246 178.84 326.71 179.176C327.174 179.496 327.87 179.656 328.798 179.656ZM346.224 181.288C343.424 181.288 342.024 179.872 342.024 177.04V165.544H337.224V163.96H343.752V176.776C343.752 177.784 343.96 178.52 344.376 178.984C344.792 179.432 345.448 179.656 346.344 179.656C347.352 179.656 348.296 179.416 349.176 178.936L349.656 180.472C348.616 181.016 347.472 181.288 346.224 181.288ZM356.402 181V171.304H351.602V169.72H358.13V179.416H362.93V181H356.402ZM357.026 166.984C356.578 166.984 356.186 166.824 355.85 166.504C355.53 166.168 355.37 165.776 355.37 165.328C355.37 164.864 355.53 164.472 355.85 164.152C356.186 163.832 356.578 163.672 357.026 163.672C357.49 163.672 357.882 163.832 358.202 164.152C358.522 164.472 358.682 164.864 358.682 165.328C358.682 165.776 358.522 166.168 358.202 166.504C357.882 166.824 357.49 166.984 357.026 166.984ZM373.3 181.288C370.5 181.288 369.1 179.872 369.1 177.04V171.304H365.38V169.72H369.1V166.072L370.828 165.112V169.72H375.628V171.304H370.828V176.776C370.828 177.784 371.036 178.52 371.452 178.984C371.868 179.432 372.524 179.656 373.42 179.656C374.428 179.656 375.372 179.416 376.252 178.936L376.732 180.472C375.692 181.016 374.548 181.288 373.3 181.288ZM381.03 186.328C379.974 186.328 379.038 186.08 378.222 185.584L378.846 184.12C379.502 184.504 380.198 184.696 380.934 184.696C381.638 184.696 382.19 184.52 382.59 184.168C382.99 183.816 383.366 183.2 383.718 182.32L384.15 181.24L379.326 169.72H381.222L385.038 179.008L388.734 169.72H390.51L385.206 183.04C384.726 184.256 384.174 185.104 383.55 185.584C382.942 186.08 382.102 186.328 381.03 186.328ZM414.777 181.288C411.977 181.288 410.577 179.872 410.577 177.04V171.304H406.857V169.72H410.577V166.072L412.305 165.112V169.72H417.105V171.304H412.305V176.776C412.305 177.784 412.513 178.52 412.929 178.984C413.345 179.432 414.001 179.656 414.897 179.656C415.905 179.656 416.849 179.416 417.729 178.936L418.209 180.472C417.169 181.016 416.025 181.288 414.777 181.288ZM427.043 181.288C425.107 181.288 423.579 180.76 422.459 179.704C421.355 178.648 420.803 177.2 420.803 175.36C420.803 174.144 421.043 173.096 421.523 172.216C422.003 171.336 422.675 170.656 423.539 170.176C424.403 169.68 425.411 169.432 426.563 169.432C427.683 169.432 428.651 169.664 429.467 170.128C430.283 170.576 430.907 171.216 431.339 172.048C431.787 172.864 432.011 173.84 432.011 174.976C432.011 175.136 432.011 175.296 432.011 175.456C432.011 175.616 431.995 175.784 431.963 175.96H422.603C422.715 177.144 423.155 178.056 423.923 178.696C424.691 179.336 425.747 179.656 427.091 179.656C428.435 179.656 429.707 179.264 430.907 178.48L431.651 179.896C430.931 180.376 430.195 180.728 429.443 180.952C428.691 181.176 427.891 181.288 427.043 181.288ZM422.651 174.424H430.259C430.147 173.368 429.771 172.544 429.131 171.952C428.491 171.36 427.627 171.064 426.539 171.064C425.467 171.064 424.587 171.36 423.899 171.952C423.227 172.544 422.811 173.368 422.651 174.424ZM440.197 181.288C438.229 181.288 436.469 180.824 434.917 179.896L435.613 178.432C436.301 178.832 437.037 179.136 437.821 179.344C438.605 179.552 439.421 179.656 440.269 179.656C442.429 179.656 443.509 179.032 443.509 177.784C443.509 177.32 443.365 176.984 443.077 176.776C442.789 176.552 442.285 176.392 441.565 176.296L438.829 175.912C437.661 175.736 436.805 175.424 436.261 174.976C435.733 174.512 435.469 173.832 435.469 172.936C435.469 171.816 435.877 170.952 436.693 170.344C437.525 169.736 438.685 169.432 440.173 169.432C441.853 169.432 443.437 169.816 444.925 170.584L444.301 172.072C443.037 171.4 441.645 171.064 440.125 171.064C438.189 171.064 437.221 171.648 437.221 172.816C437.221 173.264 437.365 173.592 437.653 173.8C437.941 174.008 438.445 174.16 439.165 174.256L441.901 174.64C443.085 174.8 443.941 175.112 444.469 175.576C444.997 176.04 445.261 176.736 445.261 177.664C445.261 178.832 444.821 179.728 443.941 180.352C443.077 180.976 441.829 181.288 440.197 181.288ZM456.255 181.288C453.455 181.288 452.055 179.872 452.055 177.04V171.304H448.335V169.72H452.055V166.072L453.783 165.112V169.72H458.583V171.304H453.783V176.776C453.783 177.784 453.991 178.52 454.407 178.984C454.823 179.432 455.479 179.656 456.375 179.656C457.383 179.656 458.327 179.416 459.207 178.936L459.687 180.472C458.647 181.016 457.503 181.288 456.255 181.288ZM483.907 181.288C481.107 181.288 479.707 179.872 479.707 177.04V171.304H475.987V169.72H479.707V166.072L481.435 165.112V169.72H486.235V171.304H481.435V176.776C481.435 177.784 481.643 178.52 482.059 178.984C482.475 179.432 483.131 179.656 484.027 179.656C485.035 179.656 485.979 179.416 486.859 178.936L487.339 180.472C486.299 181.016 485.155 181.288 483.907 181.288ZM495.525 181.288C494.389 181.288 493.389 181.04 492.525 180.544C491.661 180.048 490.989 179.36 490.509 178.48C490.045 177.584 489.813 176.544 489.813 175.36C489.813 174.176 490.045 173.144 490.509 172.264C490.989 171.368 491.661 170.672 492.525 170.176C493.389 169.68 494.389 169.432 495.525 169.432C496.677 169.432 497.677 169.68 498.525 170.176C499.389 170.672 500.053 171.368 500.517 172.264C500.997 173.144 501.237 174.176 501.237 175.36C501.237 176.544 500.997 177.584 500.517 178.48C500.053 179.36 499.389 180.048 498.525 180.544C497.677 181.04 496.677 181.288 495.525 181.288ZM495.525 179.656C496.757 179.656 497.717 179.272 498.405 178.504C499.109 177.736 499.461 176.688 499.461 175.36C499.461 174.032 499.109 172.984 498.405 172.216C497.717 171.448 496.757 171.064 495.525 171.064C494.309 171.064 493.349 171.448 492.645 172.216C491.941 172.984 491.589 174.032 491.589 175.36C491.589 176.688 491.941 177.736 492.645 178.504C493.349 179.272 494.309 179.656 495.525 179.656ZM521.784 181V171.304H518.064V169.72H521.784V167.92C521.784 166.512 522.152 165.456 522.888 164.752C523.64 164.032 524.744 163.672 526.2 163.672C527.416 163.672 528.528 163.928 529.536 164.44L529.08 165.976C528.184 165.528 527.272 165.304 526.344 165.304C525.4 165.304 524.688 165.544 524.208 166.024C523.744 166.504 523.512 167.224 523.512 168.184V169.72H528.312V171.304H523.512V181H521.784ZM536.138 181V171.304H531.338V169.72H537.866V179.416H542.666V181H536.138ZM536.762 166.984C536.314 166.984 535.922 166.824 535.586 166.504C535.266 166.168 535.106 165.776 535.106 165.328C535.106 164.864 535.266 164.472 535.586 164.152C535.922 163.832 536.314 163.672 536.762 163.672C537.226 163.672 537.618 163.832 537.938 164.152C538.258 164.472 538.418 164.864 538.418 165.328C538.418 165.776 538.258 166.168 537.938 166.504C537.618 166.824 537.226 166.984 536.762 166.984ZM546.004 181V169.72H547.3L547.492 170.92C548.148 170.424 548.828 170.056 549.532 169.816C550.236 169.56 550.98 169.432 551.764 169.432C553.092 169.432 554.092 169.784 554.764 170.488C555.452 171.192 555.796 172.256 555.796 173.68V181H554.068V173.944C554.068 172.936 553.86 172.208 553.444 171.76C553.028 171.296 552.372 171.064 551.476 171.064C550.836 171.064 550.188 171.176 549.532 171.4C548.892 171.608 548.292 171.92 547.732 172.336V181H546.004ZM564.03 181.288C562.526 181.288 561.326 180.752 560.43 179.68C559.534 178.608 559.086 177.168 559.086 175.36C559.086 173.552 559.534 172.112 560.43 171.04C561.326 169.968 562.526 169.432 564.03 169.432C564.702 169.432 565.366 169.544 566.022 169.768C566.694 169.992 567.334 170.32 567.942 170.752V163.96H569.67V181H568.374L568.182 179.8C566.87 180.792 565.486 181.288 564.03 181.288ZM564.318 179.656C564.926 179.656 565.55 179.544 566.19 179.32C566.83 179.096 567.414 178.784 567.942 178.384V172.336C567.414 171.936 566.83 171.624 566.19 171.4C565.55 171.176 564.926 171.064 564.318 171.064C563.246 171.064 562.398 171.448 561.774 172.216C561.166 172.984 560.862 174.032 560.862 175.36C560.862 176.688 561.166 177.736 561.774 178.504C562.398 179.272 563.246 179.656 564.318 179.656ZM592.306 181.288C591.17 181.288 590.17 181.04 589.306 180.544C588.442 180.048 587.77 179.36 587.29 178.48C586.826 177.584 586.594 176.544 586.594 175.36C586.594 174.176 586.826 173.144 587.29 172.264C587.77 171.368 588.442 170.672 589.306 170.176C590.17 169.68 591.17 169.432 592.306 169.432C593.458 169.432 594.458 169.68 595.306 170.176C596.17 170.672 596.834 171.368 597.298 172.264C597.778 173.144 598.018 174.176 598.018 175.36C598.018 176.544 597.778 177.584 597.298 178.48C596.834 179.36 596.17 180.048 595.306 180.544C594.458 181.04 593.458 181.288 592.306 181.288ZM592.306 179.656C593.538 179.656 594.498 179.272 595.186 178.504C595.89 177.736 596.242 176.688 596.242 175.36C596.242 174.032 595.89 172.984 595.186 172.216C594.498 171.448 593.538 171.064 592.306 171.064C591.09 171.064 590.13 171.448 589.426 172.216C588.722 172.984 588.37 174.032 588.37 175.36C588.37 176.688 588.722 177.736 589.426 178.504C590.13 179.272 591.09 179.656 592.306 179.656ZM605.196 181.288C603.884 181.288 602.884 180.936 602.196 180.232C601.508 179.512 601.164 178.448 601.164 177.04V169.72H602.892V176.776C602.892 177.784 603.1 178.52 603.516 178.984C603.932 179.432 604.588 179.656 605.484 179.656C606.14 179.656 606.788 179.544 607.428 179.32C608.084 179.096 608.684 178.784 609.228 178.384V169.72H610.956V181H609.66L609.468 179.8C608.828 180.296 608.148 180.672 607.428 180.928C606.724 181.168 605.98 181.288 605.196 181.288ZM622.166 181.288C619.366 181.288 617.966 179.872 617.966 177.04V171.304H614.246V169.72H617.966V166.072L619.694 165.112V169.72H624.494V171.304H619.694V176.776C619.694 177.784 619.902 178.52 620.318 178.984C620.734 179.432 621.39 179.656 622.286 179.656C623.294 179.656 624.238 179.416 625.118 178.936L625.598 180.472C624.558 181.016 623.414 181.288 622.166 181.288ZM643.625 181L641.009 169.72H642.713L644.777 178.888L646.817 170.896H648.497L650.537 178.888L652.601 169.72H654.209L651.593 181H649.625L647.633 173.104L645.617 181H643.625ZM656.611 181V163.96H658.339V170.752C659.555 169.872 660.899 169.432 662.371 169.432C663.699 169.432 664.699 169.784 665.371 170.488C666.059 171.192 666.403 172.256 666.403 173.68V181H664.675V173.944C664.675 172.936 664.467 172.208 664.051 171.76C663.635 171.296 662.979 171.064 662.083 171.064C661.443 171.064 660.795 171.176 660.139 171.4C659.499 171.608 658.899 171.92 658.339 172.336V181H656.611ZM674.397 181V171.304H669.597V169.72H676.125V179.416H680.925V181H674.397ZM675.021 166.984C674.573 166.984 674.181 166.824 673.845 166.504C673.525 166.168 673.365 165.776 673.365 165.328C673.365 164.864 673.525 164.472 673.845 164.152C674.181 163.832 674.573 163.672 675.021 163.672C675.485 163.672 675.877 163.832 676.197 164.152C676.517 164.472 676.677 164.864 676.677 165.328C676.677 165.776 676.517 166.168 676.197 166.504C675.877 166.824 675.485 166.984 675.021 166.984ZM689.999 181.288C688.751 181.288 687.679 181.048 686.783 180.568C685.887 180.088 685.199 179.408 684.719 178.528C684.239 177.632 683.999 176.576 683.999 175.36C683.999 174.128 684.239 173.072 684.719 172.192C685.199 171.312 685.887 170.632 686.783 170.152C687.679 169.672 688.751 169.432 689.999 169.432C691.487 169.432 692.863 169.824 694.127 170.608L693.455 172.048C692.911 171.712 692.351 171.464 691.775 171.304C691.199 171.144 690.607 171.064 689.999 171.064C688.655 171.064 687.615 171.44 686.879 172.192C686.143 172.928 685.775 173.984 685.775 175.36C685.775 176.736 686.143 177.8 686.879 178.552C687.615 179.288 688.655 179.656 689.999 179.656C690.671 179.656 691.311 179.56 691.919 179.368C692.543 179.176 693.159 178.88 693.767 178.48L694.487 179.872C693.143 180.816 691.647 181.288 689.999 181.288ZM698.089 181V163.96H699.817V170.752C701.033 169.872 702.377 169.432 703.849 169.432C705.177 169.432 706.177 169.784 706.849 170.488C707.537 171.192 707.881 172.256 707.881 173.68V181H706.153V173.944C706.153 172.936 705.945 172.208 705.529 171.76C705.113 171.296 704.457 171.064 703.561 171.064C702.921 171.064 702.273 171.176 701.617 171.4C700.977 171.608 700.377 171.92 699.817 172.336V181H698.089ZM731.477 181.288C730.229 181.288 729.157 181.048 728.261 180.568C727.365 180.088 726.677 179.408 726.197 178.528C725.717 177.632 725.477 176.576 725.477 175.36C725.477 174.128 725.717 173.072 726.197 172.192C726.677 171.312 727.365 170.632 728.261 170.152C729.157 169.672 730.229 169.432 731.477 169.432C732.965 169.432 734.341 169.824 735.605 170.608L734.933 172.048C734.389 171.712 733.829 171.464 733.253 171.304C732.677 171.144 732.085 171.064 731.477 171.064C730.133 171.064 729.093 171.44 728.357 172.192C727.621 172.928 727.253 173.984 727.253 175.36C727.253 176.736 727.621 177.8 728.357 178.552C729.093 179.288 730.133 179.656 731.477 179.656C732.149 179.656 732.789 179.56 733.397 179.368C734.021 179.176 734.637 178.88 735.245 178.48L735.965 179.872C734.621 180.816 733.125 181.288 731.477 181.288ZM744.39 181.288C743.254 181.288 742.254 181.04 741.39 180.544C740.526 180.048 739.854 179.36 739.374 178.48C738.91 177.584 738.678 176.544 738.678 175.36C738.678 174.176 738.91 173.144 739.374 172.264C739.854 171.368 740.526 170.672 741.39 170.176C742.254 169.68 743.254 169.432 744.39 169.432C745.542 169.432 746.542 169.68 747.39 170.176C748.254 170.672 748.918 171.368 749.382 172.264C749.862 173.144 750.102 174.176 750.102 175.36C750.102 176.544 749.862 177.584 749.382 178.48C748.918 179.36 748.254 180.048 747.39 180.544C746.542 181.04 745.542 181.288 744.39 181.288ZM744.39 179.656C745.622 179.656 746.582 179.272 747.27 178.504C747.974 177.736 748.326 176.688 748.326 175.36C748.326 174.032 747.974 172.984 747.27 172.216C746.582 171.448 745.622 171.064 744.39 171.064C743.174 171.064 742.214 171.448 741.51 172.216C740.806 172.984 740.454 174.032 740.454 175.36C740.454 176.688 740.806 177.736 741.51 178.504C742.214 179.272 743.174 179.656 744.39 179.656ZM761 181.288C758.2 181.288 756.8 179.872 756.8 177.04V165.544H752V163.96H758.528V176.776C758.528 177.784 758.736 178.52 759.152 178.984C759.568 179.432 760.224 179.656 761.12 179.656C762.128 179.656 763.072 179.416 763.952 178.936L764.432 180.472C763.392 181.016 762.248 181.288 761 181.288ZM772.042 181.288C770.906 181.288 769.906 181.04 769.042 180.544C768.178 180.048 767.506 179.36 767.026 178.48C766.562 177.584 766.33 176.544 766.33 175.36C766.33 174.176 766.562 173.144 767.026 172.264C767.506 171.368 768.178 170.672 769.042 170.176C769.906 169.68 770.906 169.432 772.042 169.432C773.194 169.432 774.194 169.68 775.042 170.176C775.906 170.672 776.57 171.368 777.034 172.264C777.514 173.144 777.754 174.176 777.754 175.36C777.754 176.544 777.514 177.584 777.034 178.48C776.57 179.36 775.906 180.048 775.042 180.544C774.194 181.04 773.194 181.288 772.042 181.288ZM772.042 179.656C773.274 179.656 774.234 179.272 774.922 178.504C775.626 177.736 775.978 176.688 775.978 175.36C775.978 174.032 775.626 172.984 774.922 172.216C774.234 171.448 773.274 171.064 772.042 171.064C770.826 171.064 769.866 171.448 769.162 172.216C768.458 172.984 768.106 174.032 768.106 175.36C768.106 176.688 768.458 177.736 769.162 178.504C769.866 179.272 770.826 179.656 772.042 179.656ZM781.884 181V169.72H783.276L783.516 171.688C784.172 170.936 784.9 170.376 785.7 170.008C786.516 169.624 787.396 169.432 788.34 169.432C789.396 169.432 790.244 169.656 790.884 170.104L790.236 171.664C789.932 171.456 789.612 171.312 789.276 171.232C788.956 171.136 788.596 171.088 788.196 171.088C786.388 171.088 784.86 171.944 783.612 173.656V181H781.884ZM323.277 210.288C321.821 210.288 320.437 209.792 319.125 208.8L318.933 210H317.637V192.96H319.365V199.752C319.973 199.32 320.605 198.992 321.261 198.768C321.933 198.544 322.605 198.432 323.277 198.432C324.797 198.432 325.997 198.968 326.877 200.04C327.773 201.112 328.221 202.552 328.221 204.36C328.221 206.168 327.773 207.608 326.877 208.68C325.997 209.752 324.797 210.288 323.277 210.288ZM322.989 208.656C324.077 208.656 324.925 208.272 325.533 207.504C326.141 206.736 326.445 205.688 326.445 204.36C326.445 203.032 326.141 201.984 325.533 201.216C324.925 200.448 324.077 200.064 322.989 200.064C322.397 200.064 321.773 200.176 321.117 200.4C320.477 200.624 319.893 200.936 319.365 201.336V207.384C319.893 207.784 320.477 208.096 321.117 208.32C321.773 208.544 322.397 208.656 322.989 208.656ZM337.127 210.288C335.191 210.288 333.663 209.76 332.543 208.704C331.439 207.648 330.887 206.2 330.887 204.36C330.887 203.144 331.127 202.096 331.607 201.216C332.087 200.336 332.759 199.656 333.623 199.176C334.487 198.68 335.495 198.432 336.647 198.432C337.767 198.432 338.735 198.664 339.551 199.128C340.367 199.576 340.991 200.216 341.423 201.048C341.871 201.864 342.095 202.84 342.095 203.976C342.095 204.136 342.095 204.296 342.095 204.456C342.095 204.616 342.079 204.784 342.047 204.96H332.687C332.799 206.144 333.239 207.056 334.007 207.696C334.775 208.336 335.831 208.656 337.175 208.656C338.519 208.656 339.791 208.264 340.991 207.48L341.735 208.896C341.015 209.376 340.279 209.728 339.527 209.952C338.775 210.176 337.975 210.288 337.127 210.288ZM332.735 203.424H340.343C340.231 202.368 339.855 201.544 339.215 200.952C338.575 200.36 337.711 200.064 336.623 200.064C335.551 200.064 334.671 200.36 333.983 200.952C333.311 201.544 332.895 202.368 332.735 203.424ZM350.281 210.288C348.313 210.288 346.553 209.824 345.001 208.896L345.697 207.432C346.385 207.832 347.121 208.136 347.905 208.344C348.689 208.552 349.505 208.656 350.353 208.656C352.513 208.656 353.593 208.032 353.593 206.784C353.593 206.32 353.449 205.984 353.161 205.776C352.873 205.552 352.369 205.392 351.649 205.296L348.913 204.912C347.745 204.736 346.889 204.424 346.345 203.976C345.817 203.512 345.553 202.832 345.553 201.936C345.553 200.816 345.961 199.952 346.777 199.344C347.609 198.736 348.769 198.432 350.257 198.432C351.937 198.432 353.521 198.816 355.009 199.584L354.385 201.072C353.121 200.4 351.729 200.064 350.209 200.064C348.273 200.064 347.305 200.648 347.305 201.816C347.305 202.264 347.449 202.592 347.737 202.8C348.025 203.008 348.529 203.16 349.249 203.256L351.985 203.64C353.169 203.8 354.025 204.112 354.553 204.576C355.081 205.04 355.345 205.736 355.345 206.664C355.345 207.832 354.905 208.728 354.025 209.352C353.161 209.976 351.913 210.288 350.281 210.288ZM366.339 210.288C363.539 210.288 362.139 208.872 362.139 206.04V200.304H358.419V198.72H362.139V195.072L363.867 194.112V198.72H368.667V200.304H363.867V205.776C363.867 206.784 364.075 207.52 364.491 207.984C364.907 208.432 365.563 208.656 366.459 208.656C367.467 208.656 368.411 208.416 369.291 207.936L369.771 209.472C368.731 210.016 367.587 210.288 366.339 210.288ZM387.799 210V198.72H389.191L389.431 200.688C390.087 199.936 390.815 199.376 391.615 199.008C392.431 198.624 393.311 198.432 394.255 198.432C395.311 198.432 396.159 198.656 396.799 199.104L396.151 200.664C395.847 200.456 395.527 200.312 395.191 200.232C394.871 200.136 394.511 200.088 394.111 200.088C392.303 200.088 390.775 200.944 389.527 202.656V210H387.799ZM406.256 210.288C404.32 210.288 402.792 209.76 401.672 208.704C400.568 207.648 400.016 206.2 400.016 204.36C400.016 203.144 400.256 202.096 400.736 201.216C401.216 200.336 401.888 199.656 402.752 199.176C403.616 198.68 404.624 198.432 405.776 198.432C406.896 198.432 407.864 198.664 408.68 199.128C409.496 199.576 410.12 200.216 410.552 201.048C411 201.864 411.224 202.84 411.224 203.976C411.224 204.136 411.224 204.296 411.224 204.456C411.224 204.616 411.208 204.784 411.176 204.96H401.816C401.928 206.144 402.368 207.056 403.136 207.696C403.904 208.336 404.96 208.656 406.304 208.656C407.648 208.656 408.92 208.264 410.12 207.48L410.864 208.896C410.144 209.376 409.408 209.728 408.656 209.952C407.904 210.176 407.104 210.288 406.256 210.288ZM401.864 203.424H409.472C409.36 202.368 408.984 201.544 408.344 200.952C407.704 200.36 406.84 200.064 405.752 200.064C404.68 200.064 403.8 200.36 403.112 200.952C402.44 201.544 402.024 202.368 401.864 203.424ZM414.418 215.04V198.72H415.714L415.906 199.92C417.218 198.928 418.602 198.432 420.058 198.432C421.578 198.432 422.778 198.968 423.658 200.04C424.554 201.112 425.002 202.552 425.002 204.36C425.002 206.168 424.554 207.608 423.658 208.68C422.778 209.752 421.578 210.288 420.058 210.288C419.386 210.288 418.714 210.176 418.042 209.952C417.386 209.728 416.754 209.4 416.146 208.968V215.04H414.418ZM419.77 208.656C420.858 208.656 421.706 208.272 422.314 207.504C422.922 206.736 423.226 205.688 423.226 204.36C423.226 203.032 422.922 201.984 422.314 201.216C421.706 200.448 420.858 200.064 419.77 200.064C419.178 200.064 418.554 200.176 417.898 200.4C417.258 200.624 416.674 200.936 416.146 201.336V207.384C416.674 207.784 417.258 208.096 417.898 208.32C418.554 208.544 419.178 208.656 419.77 208.656ZM429.276 210V198.72H430.668L430.908 200.688C431.564 199.936 432.292 199.376 433.092 199.008C433.908 198.624 434.788 198.432 435.732 198.432C436.788 198.432 437.636 198.656 438.276 199.104L437.628 200.664C437.324 200.456 437.004 200.312 436.668 200.232C436.348 200.136 435.988 200.088 435.588 200.088C433.78 200.088 432.252 200.944 431.004 202.656V210H429.276ZM447.734 210.288C445.798 210.288 444.27 209.76 443.15 208.704C442.046 207.648 441.494 206.2 441.494 204.36C441.494 203.144 441.734 202.096 442.214 201.216C442.694 200.336 443.366 199.656 444.23 199.176C445.094 198.68 446.102 198.432 447.254 198.432C448.374 198.432 449.342 198.664 450.158 199.128C450.974 199.576 451.598 200.216 452.03 201.048C452.478 201.864 452.702 202.84 452.702 203.976C452.702 204.136 452.702 204.296 452.702 204.456C452.702 204.616 452.686 204.784 452.654 204.96H443.294C443.406 206.144 443.846 207.056 444.614 207.696C445.382 208.336 446.438 208.656 447.782 208.656C449.126 208.656 450.398 208.264 451.598 207.48L452.342 208.896C451.622 209.376 450.886 209.728 450.134 209.952C449.382 210.176 448.582 210.288 447.734 210.288ZM443.342 203.424H450.95C450.838 202.368 450.462 201.544 449.822 200.952C449.182 200.36 448.318 200.064 447.23 200.064C446.158 200.064 445.278 200.36 444.59 200.952C443.918 201.544 443.502 202.368 443.342 203.424ZM460.888 210.288C458.92 210.288 457.16 209.824 455.608 208.896L456.304 207.432C456.992 207.832 457.728 208.136 458.512 208.344C459.296 208.552 460.112 208.656 460.96 208.656C463.12 208.656 464.2 208.032 464.2 206.784C464.2 206.32 464.056 205.984 463.768 205.776C463.48 205.552 462.976 205.392 462.256 205.296L459.52 204.912C458.352 204.736 457.496 204.424 456.952 203.976C456.424 203.512 456.16 202.832 456.16 201.936C456.16 200.816 456.568 199.952 457.384 199.344C458.216 198.736 459.376 198.432 460.864 198.432C462.544 198.432 464.128 198.816 465.616 199.584L464.992 201.072C463.728 200.4 462.336 200.064 460.816 200.064C458.88 200.064 457.912 200.648 457.912 201.816C457.912 202.264 458.056 202.592 458.344 202.8C458.632 203.008 459.136 203.16 459.856 203.256L462.592 203.64C463.776 203.8 464.632 204.112 465.16 204.576C465.688 205.04 465.952 205.736 465.952 206.664C465.952 207.832 465.512 208.728 464.632 209.352C463.768 209.976 462.52 210.288 460.888 210.288ZM475.386 210.288C473.45 210.288 471.922 209.76 470.802 208.704C469.698 207.648 469.146 206.2 469.146 204.36C469.146 203.144 469.386 202.096 469.866 201.216C470.346 200.336 471.018 199.656 471.882 199.176C472.746 198.68 473.754 198.432 474.906 198.432C476.026 198.432 476.994 198.664 477.81 199.128C478.626 199.576 479.25 200.216 479.682 201.048C480.13 201.864 480.354 202.84 480.354 203.976C480.354 204.136 480.354 204.296 480.354 204.456C480.354 204.616 480.338 204.784 480.306 204.96H470.946C471.058 206.144 471.498 207.056 472.266 207.696C473.034 208.336 474.09 208.656 475.434 208.656C476.778 208.656 478.05 208.264 479.25 207.48L479.994 208.896C479.274 209.376 478.538 209.728 477.786 209.952C477.034 210.176 476.234 210.288 475.386 210.288ZM470.994 203.424H478.602C478.49 202.368 478.114 201.544 477.474 200.952C476.834 200.36 475.97 200.064 474.882 200.064C473.81 200.064 472.93 200.36 472.242 200.952C471.57 201.544 471.154 202.368 470.994 203.424ZM483.74 210V198.72H485.036L485.228 199.92C485.884 199.424 486.564 199.056 487.268 198.816C487.972 198.56 488.716 198.432 489.5 198.432C490.828 198.432 491.828 198.784 492.5 199.488C493.188 200.192 493.532 201.256 493.532 202.68V210H491.804V202.944C491.804 201.936 491.596 201.208 491.18 200.76C490.764 200.296 490.108 200.064 489.212 200.064C488.572 200.064 487.924 200.176 487.268 200.4C486.628 200.608 486.028 200.92 485.468 201.336V210H483.74ZM504.598 210.288C501.798 210.288 500.398 208.872 500.398 206.04V200.304H496.678V198.72H500.398V195.072L502.126 194.112V198.72H506.926V200.304H502.126V205.776C502.126 206.784 502.334 207.52 502.75 207.984C503.166 208.432 503.822 208.656 504.718 208.656C505.726 208.656 506.67 208.416 507.55 207.936L508.03 209.472C506.99 210.016 505.846 210.288 504.598 210.288ZM516.191 210.288C514.223 210.288 512.463 209.824 510.911 208.896L511.607 207.432C512.295 207.832 513.031 208.136 513.815 208.344C514.599 208.552 515.415 208.656 516.263 208.656C518.423 208.656 519.503 208.032 519.503 206.784C519.503 206.32 519.359 205.984 519.071 205.776C518.783 205.552 518.279 205.392 517.559 205.296L514.823 204.912C513.655 204.736 512.799 204.424 512.255 203.976C511.727 203.512 511.463 202.832 511.463 201.936C511.463 200.816 511.871 199.952 512.687 199.344C513.519 198.736 514.679 198.432 516.167 198.432C517.847 198.432 519.431 198.816 520.919 199.584L520.295 201.072C519.031 200.4 517.639 200.064 516.119 200.064C514.183 200.064 513.215 200.648 513.215 201.816C513.215 202.264 513.359 202.592 513.647 202.8C513.935 203.008 514.439 203.16 515.159 203.256L517.895 203.64C519.079 203.8 519.935 204.112 520.463 204.576C520.991 205.04 521.255 205.736 521.255 206.664C521.255 207.832 520.815 208.728 519.935 209.352C519.071 209.976 517.823 210.288 516.191 210.288ZM539.979 215.328C538.923 215.328 537.987 215.08 537.171 214.584L537.795 213.12C538.451 213.504 539.147 213.696 539.883 213.696C540.587 213.696 541.139 213.52 541.539 213.168C541.939 212.816 542.315 212.2 542.667 211.32L543.099 210.24L538.275 198.72H540.171L543.987 208.008L547.683 198.72H549.459L544.155 212.04C543.675 213.256 543.123 214.104 542.499 214.584C541.891 215.08 541.051 215.328 539.979 215.328ZM557.693 210.288C556.557 210.288 555.557 210.04 554.693 209.544C553.829 209.048 553.157 208.36 552.677 207.48C552.213 206.584 551.981 205.544 551.981 204.36C551.981 203.176 552.213 202.144 552.677 201.264C553.157 200.368 553.829 199.672 554.693 199.176C555.557 198.68 556.557 198.432 557.693 198.432C558.845 198.432 559.845 198.68 560.693 199.176C561.557 199.672 562.221 200.368 562.685 201.264C563.165 202.144 563.405 203.176 563.405 204.36C563.405 205.544 563.165 206.584 562.685 207.48C562.221 208.36 561.557 209.048 560.693 209.544C559.845 210.04 558.845 210.288 557.693 210.288ZM557.693 208.656C558.925 208.656 559.885 208.272 560.573 207.504C561.277 206.736 561.629 205.688 561.629 204.36C561.629 203.032 561.277 201.984 560.573 201.216C559.885 200.448 558.925 200.064 557.693 200.064C556.477 200.064 555.517 200.448 554.813 201.216C554.109 201.984 553.757 203.032 553.757 204.36C553.757 205.688 554.109 206.736 554.813 207.504C555.517 208.272 556.477 208.656 557.693 208.656ZM570.583 210.288C569.271 210.288 568.271 209.936 567.583 209.232C566.895 208.512 566.551 207.448 566.551 206.04V198.72H568.279V205.776C568.279 206.784 568.487 207.52 568.903 207.984C569.319 208.432 569.975 208.656 570.871 208.656C571.527 208.656 572.175 208.544 572.815 208.32C573.471 208.096 574.071 207.784 574.615 207.384V198.72H576.343V210H575.047L574.855 208.8C574.215 209.296 573.535 209.672 572.815 209.928C572.111 210.168 571.367 210.288 570.583 210.288ZM585.345 210.288C584.849 210.288 584.425 210.112 584.073 209.76C583.721 209.408 583.545 208.984 583.545 208.488C583.545 208.008 583.721 207.592 584.073 207.24C584.425 206.872 584.849 206.688 585.345 206.688C585.841 206.688 586.265 206.872 586.617 207.24C586.969 207.592 587.145 208.008 587.145 208.488C587.145 208.984 586.969 209.408 586.617 209.76C586.265 210.112 585.841 210.288 585.345 210.288Z" fill="black"/>
<circle cx="258" cy="271" r="40" fill="#FDF2D0"/>
<circle cx="389" cy="271" r="40" fill="#DFBAB1"/>
<circle cx="520" cy="271" r="40" fill="#DCE9D5"/>
<circle cx="651" cy="271" r="40" fill="#D3DFE2"/>
<defs>
<filter id="filter0_d_213_665" x="1" y="1" width="909" height="362" filterUnits="userSpaceOnUse" color-interpolation-filters="sRGB">
<feFlood flood-opacity="0" result="BackgroundImageFix"/>
<feColorMatrix in="SourceAlpha" type="matrix" values="0 0 0 0 0 0 0 0 0 0 0 0 0 0 0 0 0 0 127 0" result="hardAlpha"/>
<feMorphology radius="1" operator="dilate" in="SourceAlpha" result="effect1_dropShadow_213_665"/>
<feOffset dx="1" dy="1"/>
<feColorMatrix type="matrix" values="0 0 0 0 0 0 0 0 0 0 0 0 0 0 0 0 0 0 1 0"/>
<feBlend mode="normal" in2="BackgroundImageFix" result="effect1_dropShadow_213_665"/>
<feBlend mode="normal" in="SourceGraphic" in2="effect1_dropShadow_213_665" result="shape"/>
</filter>
<filter id="filter1_b_213_665" x="-49" y="-49" width="1007" height="460" filterUnits="userSpaceOnUse" color-interpolation-filters="sRGB">
<feFlood flood-opacity="0" result="BackgroundImageFix"/>
<feGaussianBlur in="BackgroundImageFix" stdDeviation="25"/>
<feComposite in2="SourceAlpha" operator="in" result="effect1_backgroundBlur_213_665"/>
<feBlend mode="normal" in="SourceGraphic" in2="effect1_backgroundBlur_213_665" result="shape"/>
</filter>
<clipPath id="clip0_213_665">
<path d="M1 1H908V361H1V1Z" fill="white"/>
</clipPath>
</defs>
</svg>
